# xmcd
#
# Track frame offsets:
#       150
#       16833
#       35213
#       64905
#       88908
#
# Disc length: 1430 seconds
#
# Revision: 0
# Processed by: cddbd v1.4PL0 Copyright (c) Steve Scherf et al.
# Submitted via: CD-DA_X-Tractor v0.23
#
DISCID=3f059405
DTITLE=James Brown - Move On
DYEAR=1900
DGENRE=Rock
TTITLE0=7" Club Edit
TTITLE1=7" Edit
TTITLE2=Club Edit
TTITLE3=Dub Edit
TTITLE4=Album Version
EXTD=
EXTT0=
EXTT1=
EXTT2=
EXTT3=
EXTT4=
PLAYORDER=
